<svg width="16" height="18" viewBox="0 0 16 18" fill="none" xmlns="http://www.w3.org/2000/svg">
<path d="M1.99998 16H14L12.575 6H3.42498L1.99998 16ZM7.99998 4C8.28331 4 8.52081 3.90417 8.71248 3.7125C8.90415 3.52083 8.99998 3.28333 8.99998 3C8.99998 2.71667 8.90415 2.47917 8.71248 2.2875C8.52081 2.09583 8.28331 2 7.99998 2C7.71665 2 7.47915 2.09583 7.28748 2.2875C7.09582 2.47917 6.99998 2.71667 6.99998 3C6.99998 3.28333 7.09582 3.52083 7.28748 3.7125C7.47915 3.90417 7.71665 4 7.99998 4ZM10.825 4H12.575C13.075 4 13.5083 4.16667 13.875 4.5C14.2416 4.83333 14.4666 5.24167 14.55 5.725L15.975 15.725C16.0583 16.325 15.9041 16.8542 15.5125 17.3125C15.1208 17.7708 14.6166 18 14 18H1.99998C1.38331 18 0.879148 17.7708 0.487482 17.3125C0.0958149 16.8542 -0.0583518 16.325 0.0249816 15.725L1.44998 5.725C1.53331 5.24167 1.75831 4.83333 2.12498 4.5C2.49165 4.16667 2.92498 4 3.42498 4H5.17498C5.12498 3.83333 5.08331 3.67083 5.04998 3.5125C5.01665 3.35417 4.99998 3.18333 4.99998 3C4.99998 2.16667 5.29165 1.45833 5.87498 0.875C6.45832 0.291667 7.16665 0 7.99998 0C8.83331 0 9.54165 0.291667 10.125 0.875C10.7083 1.45833 11 2.16667 11 3C11 3.18333 10.9833 3.35417 10.95 3.5125C10.9166 3.67083 10.875 3.83333 10.825 4Z" fill="#111111"/>
</svg>
