<svg width="21" height="21" viewBox="0 0 21 21" fill="none" xmlns="http://www.w3.org/2000/svg">
<path d="M3.65005 8.02501L5.60005 8.85001C5.83338 8.38335 6.07505 7.93335 6.32505 7.50001C6.57505 7.06668 6.85005 6.63335 7.15005 6.20001L5.75005 5.92501L3.65005 8.02501ZM7.20005 10.1L10.05 12.925C10.75 12.6583 11.5 12.25 12.3 11.7C13.1 11.15 13.85 10.525 14.55 9.82501C15.7167 8.65835 16.6292 7.36251 17.2875 5.93751C17.9459 4.51251 18.2334 3.20001 18.15 2.00001C16.95 1.91668 15.6334 2.20418 14.2 2.86251C12.7667 3.52085 11.4667 4.43335 10.3 5.60001C9.60005 6.30001 8.97505 7.05001 8.42505 7.85001C7.87505 8.65001 7.46672 9.40001 7.20005 10.1ZM11.65 8.47501C11.2667 8.09168 11.075 7.62085 11.075 7.06251C11.075 6.50418 11.2667 6.03335 11.65 5.65001C12.0334 5.26668 12.5084 5.07501 13.075 5.07501C13.6417 5.07501 14.1167 5.26668 14.5 5.65001C14.8834 6.03335 15.075 6.50418 15.075 7.06251C15.075 7.62085 14.8834 8.09168 14.5 8.47501C14.1167 8.85835 13.6417 9.05001 13.075 9.05001C12.5084 9.05001 12.0334 8.85835 11.65 8.47501ZM12.125 16.5L14.225 14.4L13.95 13C13.5167 13.3 13.0834 13.5708 12.65 13.8125C12.2167 14.0542 11.7667 14.2917 11.3 14.525L12.125 16.5ZM19.95 0.175014C20.2667 2.19168 20.0709 4.15418 19.3625 6.06251C18.6542 7.97085 17.4334 9.79168 15.7 11.525L16.2 14C16.2667 14.3333 16.25 14.6583 16.15 14.975C16.05 15.2917 15.8834 15.5667 15.65 15.8L11.45 20L9.35005 15.075L5.07505 10.8L0.150049 8.70001L4.32505 4.50001C4.55838 4.26668 4.83755 4.10001 5.16255 4.00001C5.48755 3.90001 5.81672 3.88335 6.15005 3.95001L8.62505 4.45001C10.3584 2.71668 12.175 1.49168 14.075 0.775014C15.975 0.0583473 17.9334 -0.141653 19.95 0.175014ZM1.92505 13.975C2.50838 13.3917 3.22088 13.0958 4.06255 13.0875C4.90422 13.0792 5.61672 13.3667 6.20005 13.95C6.78338 14.5333 7.07088 15.2458 7.06255 16.0875C7.05422 16.9292 6.75838 17.6417 6.17505 18.225C5.75838 18.6417 5.06255 19 4.08755 19.3C3.11255 19.6 1.76672 19.8667 0.0500488 20.1C0.283382 18.3833 0.550049 17.0375 0.850049 16.0625C1.15005 15.0875 1.50838 14.3917 1.92505 13.975ZM3.35005 15.375C3.18338 15.5417 3.01672 15.8458 2.85005 16.2875C2.68338 16.7292 2.56672 17.175 2.50005 17.625C2.95005 17.5583 3.39588 17.4458 3.83755 17.2875C4.27922 17.1292 4.58338 16.9667 4.75005 16.8C4.95005 16.6 5.05838 16.3583 5.07505 16.075C5.09172 15.7917 5.00005 15.55 4.80005 15.35C4.60005 15.15 4.35838 15.0542 4.07505 15.0625C3.79172 15.0708 3.55005 15.175 3.35005 15.375Z" fill="#111111"/>
</svg>
