<svg width="10" height="18" viewBox="0 0 10 18" fill="none" xmlns="http://www.w3.org/2000/svg">
<path d="M5 18L1 14L2.4 12.575L4 14.175V9.9C2.85 9.66667 1.89583 9.09583 1.1375 8.1875C0.379167 7.27917 0 6.21667 0 5C0 3.61667 0.4875 2.4375 1.4625 1.4625C2.4375 0.4875 3.61667 0 5 0C6.38333 0 7.5625 0.4875 8.5375 1.4625C9.5125 2.4375 10 3.61667 10 5C10 6.21667 9.62083 7.27917 8.8625 8.1875C8.10417 9.09583 7.15 9.66667 6 9.9V14.175L7.6 12.6L9 14L5 18ZM5 8C5.83333 8 6.54167 7.70833 7.125 7.125C7.70833 6.54167 8 5.83333 8 5C8 4.16667 7.70833 3.45833 7.125 2.875C6.54167 2.29167 5.83333 2 5 2C4.16667 2 3.45833 2.29167 2.875 2.875C2.29167 3.45833 2 4.16667 2 5C2 5.83333 2.29167 6.54167 2.875 7.125C3.45833 7.70833 4.16667 8 5 8Z" fill="#111111"/>
</svg>
