<svg width="20" height="20" viewBox="0 0 20 20" fill="none" xmlns="http://www.w3.org/2000/svg">
<path d="M10 20C8.61667 20 7.31667 19.7375 6.1 19.2125C4.88333 18.6875 3.825 17.975 2.925 17.075C2.025 16.175 1.3125 15.1167 0.7875 13.9C0.2625 12.6833 0 11.3833 0 10C0 8.61667 0.2625 7.31667 0.7875 6.1C1.3125 4.88333 2.025 3.825 2.925 2.925C3.825 2.025 4.88333 1.3125 6.1 0.7875C7.31667 0.2625 8.61667 0 10 0C11.3833 0 12.6833 0.2625 13.9 0.7875C15.1167 1.3125 16.175 2.025 17.075 2.925C17.975 3.825 18.6875 4.88333 19.2125 6.1C19.7375 7.31667 20 8.61667 20 10C20 11.3833 19.7375 12.6833 19.2125 13.9C18.6875 15.1167 17.975 16.175 17.075 17.075C16.175 17.975 15.1167 18.6875 13.9 19.2125C12.6833 19.7375 11.3833 20 10 20ZM10 18C12.2167 18 14.1042 17.2208 15.6625 15.6625C17.2208 14.1042 18 12.2167 18 10C18 7.78333 17.2208 5.89583 15.6625 4.3375C14.1042 2.77917 12.2167 2 10 2C7.78333 2 5.89583 2.77917 4.3375 4.3375C2.77917 5.89583 2 7.78333 2 10C2 12.2167 2.77917 14.1042 4.3375 15.6625C5.89583 17.2208 7.78333 18 10 18ZM11.5 8.9L12 8.6C12.0333 9 12.1917 9.33333 12.475 9.6C12.7583 9.86667 13.1 10 13.5 10C13.9167 10 14.2708 9.85417 14.5625 9.5625C14.8542 9.27083 15 8.91667 15 8.5C15 8.25 14.9417 8.0125 14.825 7.7875C14.7083 7.5625 14.55 7.38333 14.35 7.25L15 6.875L14.5 6L11 8L11.5 8.9ZM8.5 8.9L9 8L5.5 6L5 6.875L5.65 7.25C5.45 7.38333 5.29167 7.5625 5.175 7.7875C5.05833 8.0125 5 8.25 5 8.5C5 8.91667 5.14583 9.27083 5.4375 9.5625C5.72917 9.85417 6.08333 10 6.5 10C6.9 10 7.24167 9.86667 7.525 9.6C7.80833 9.33333 7.96667 9 8 8.6L8.5 8.9ZM10 11C8.81667 11 7.775 11.3792 6.875 12.1375C5.975 12.8958 5.34167 13.85 4.975 15H15.025C14.6583 13.85 14.025 12.8958 13.125 12.1375C12.225 11.3792 11.1833 11 10 11Z" fill="#111111"/>
</svg>
