<svg width="20" height="20" viewBox="0 0 20 20" fill="none" xmlns="http://www.w3.org/2000/svg">
<path d="M4 20V15.75C3.35 15.4667 2.77917 15.0875 2.2875 14.6125C1.79583 14.1375 1.37917 13.6 1.0375 13C0.695833 12.4 0.4375 11.7583 0.2625 11.075C0.0875 10.3917 0 9.7 0 9C0 6.36667 0.933333 4.20833 2.8 2.525C4.66667 0.841667 7.06667 0 10 0C12.9333 0 15.3333 0.841667 17.2 2.525C19.0667 4.20833 20 6.36667 20 9C20 9.7 19.9125 10.3917 19.7375 11.075C19.5625 11.7583 19.3042 12.4 18.9625 13C18.6208 13.6 18.2042 14.1375 17.7125 14.6125C17.2208 15.0875 16.65 15.4667 16 15.75V20H4ZM6 18H7V16H9V18H11V16H13V18H14V14.45C14.6333 14.3 15.1958 14.05 15.6875 13.7C16.1792 13.35 16.5958 12.9333 16.9375 12.45C17.2792 11.9667 17.5417 11.4333 17.725 10.85C17.9083 10.2667 18 9.65 18 9C18 6.91667 17.2625 5.22917 15.7875 3.9375C14.3125 2.64583 12.3833 2 10 2C7.61667 2 5.6875 2.64583 4.2125 3.9375C2.7375 5.22917 2 6.91667 2 9C2 9.65 2.09167 10.2667 2.275 10.85C2.45833 11.4333 2.72083 11.9667 3.0625 12.45C3.40417 12.9333 3.825 13.35 4.325 13.7C4.825 14.05 5.38333 14.3 6 14.45V18ZM8.5 13H11.5L10 10L8.5 13ZM6.5 11C7.05 11 7.52083 10.8042 7.9125 10.4125C8.30417 10.0208 8.5 9.55 8.5 9C8.5 8.45 8.30417 7.97917 7.9125 7.5875C7.52083 7.19583 7.05 7 6.5 7C5.95 7 5.47917 7.19583 5.0875 7.5875C4.69583 7.97917 4.5 8.45 4.5 9C4.5 9.55 4.69583 10.0208 5.0875 10.4125C5.47917 10.8042 5.95 11 6.5 11ZM13.5 11C14.05 11 14.5208 10.8042 14.9125 10.4125C15.3042 10.0208 15.5 9.55 15.5 9C15.5 8.45 15.3042 7.97917 14.9125 7.5875C14.5208 7.19583 14.05 7 13.5 7C12.95 7 12.4792 7.19583 12.0875 7.5875C11.6958 7.97917 11.5 8.45 11.5 9C11.5 9.55 11.6958 10.0208 12.0875 10.4125C12.4792 10.8042 12.95 11 13.5 11Z" fill="#111111"/>
</svg>
