<svg width="21" height="20" viewBox="0 0 21 20" fill="none" xmlns="http://www.w3.org/2000/svg">
<path d="M16 7L15.2 7.7C14.9667 7.91667 14.6917 8.025 14.375 8.025C14.0583 8.025 13.7833 7.93333 13.55 7.75C13.3167 7.56667 13.1583 7.33333 13.075 7.05C12.9917 6.76667 13 6.46667 13.1 6.15L13.5 4.9L12.65 4.4C12.3833 4.25 12.1958 4.03333 12.0875 3.75C11.9792 3.46667 11.9667 3.18333 12.05 2.9C12.1333 2.61667 12.3 2.39583 12.55 2.2375C12.8 2.07917 13.0833 2 13.4 2H14.4L14.7 1.05C14.8 0.733333 14.9708 0.479167 15.2125 0.2875C15.4542 0.0958333 15.7167 0 16 0C16.2833 0 16.5458 0.0958333 16.7875 0.2875C17.0292 0.479167 17.2 0.733333 17.3 1.05L17.6 2H18.6C18.9167 2 19.1958 2.07917 19.4375 2.2375C19.6792 2.39583 19.85 2.61667 19.95 2.9C20.0667 3.2 20.0667 3.49167 19.95 3.775C19.8333 4.05833 19.65 4.26667 19.4 4.4L18.5 4.9L18.9 6.15C19 6.46667 19.0083 6.77083 18.925 7.0625C18.8417 7.35417 18.6833 7.58333 18.45 7.75C18.2 7.93333 17.9208 8.025 17.6125 8.025C17.3042 8.025 17.0333 7.91667 16.8 7.7L16 7ZM16 5C16.2833 5 16.5208 4.90417 16.7125 4.7125C16.9042 4.52083 17 4.28333 17 4C17 3.71667 16.9042 3.47917 16.7125 3.2875C16.5208 3.09583 16.2833 3 16 3C15.7167 3 15.4792 3.09583 15.2875 3.2875C15.0958 3.47917 15 3.71667 15 4C15 4.28333 15.0958 4.52083 15.2875 4.7125C15.4792 4.90417 15.7167 5 16 5ZM11.8 15.9C12.1833 16.9 12.0583 17.8333 11.425 18.7C10.7917 19.5667 9.9 20 8.75 20C8.2 20 7.67917 19.8583 7.1875 19.575C6.69583 19.2917 6.33333 18.9167 6.1 18.45C4.71667 18.65 3.57083 18.2958 2.6625 17.3875C1.75417 16.4792 1.38333 15.3167 1.55 13.9C1.05 13.6167 0.666667 13.2292 0.4 12.7375C0.133333 12.2458 0 11.6833 0 11.05C0 10.0333 0.4625 9.2125 1.3875 8.5875C2.3125 7.9625 3.21667 7.83333 4.1 8.2L5.65 8.85C5.98333 8.33333 6.425 7.9125 6.975 7.5875C7.525 7.2625 8.11667 7.08333 8.75 7.05V5H10.25V7.25C10.8667 7.43333 11.375 7.72083 11.775 8.1125C12.175 8.50417 12.5167 9.05 12.8 9.75H15V11.25H12.95C12.9167 11.8833 12.7458 12.475 12.4375 13.025C12.1292 13.575 11.7167 14.0167 11.2 14.35L11.8 15.9ZM5.6 16.5C5.6 16.05 5.6375 15.6125 5.7125 15.1875C5.7875 14.7625 5.9 14.35 6.05 13.95C5.66667 14.1333 5.25417 14.2625 4.8125 14.3375C4.37083 14.4125 3.93333 14.4333 3.5 14.4C3.5 15.05 3.6875 15.5625 4.0625 15.9375C4.4375 16.3125 4.95 16.5 5.6 16.5ZM3.75 12.4C4.28333 12.4 4.75417 12.3333 5.1625 12.2C5.57083 12.0667 6.1 11.8 6.75 11.4L3.75 10.15C3.26667 9.95 2.85417 9.95417 2.5125 10.1625C2.17083 10.3708 2 10.7 2 11.15C2 11.5833 2.14167 11.9 2.425 12.1C2.70833 12.3 3.15 12.4 3.75 12.4ZM8.75 18C9.16667 18 9.50417 17.8542 9.7625 17.5625C10.0208 17.2708 10.0833 16.9667 9.95 16.65L8.6 13.25C8.28333 13.7833 8.0375 14.3167 7.8625 14.85C7.6875 15.3833 7.6 15.8667 7.6 16.3C7.6 16.85 7.69583 17.2708 7.8875 17.5625C8.07917 17.8542 8.36667 18 8.75 18ZM10.4 12.45C10.5667 12.2833 10.7 12.0625 10.8 11.7875C10.9 11.5125 10.95 11.225 10.95 10.925C10.95 10.3917 10.775 9.94167 10.425 9.575C10.075 9.20833 9.64167 9.025 9.125 9.025C8.825 9.025 8.54167 9.075 8.275 9.175C8.00833 9.275 7.78333 9.41667 7.6 9.6L9.55 10.5L10.4 12.45Z" fill="#111111"/>
</svg>
