<svg width="14" height="20" viewBox="0 0 14 20" fill="none" xmlns="http://www.w3.org/2000/svg">
<path d="M5.65 18C5.5 17.5667 5.30833 17.1667 5.075 16.8C4.84167 16.4333 4.56667 16.0917 4.25 15.775C3.93333 15.4583 3.59167 15.1792 3.225 14.9375C2.85833 14.6958 2.45833 14.5 2.025 14.35C2.05833 14.8333 2.175 15.2833 2.375 15.7C2.575 16.1167 2.84167 16.4917 3.175 16.825C3.50833 17.1583 3.88333 17.4292 4.3 17.6375C4.71667 17.8458 5.16667 17.9667 5.65 18ZM8.35 18C8.83333 17.95 9.28333 17.825 9.7 17.625C10.1167 17.425 10.4917 17.1583 10.825 16.825C11.1583 16.4917 11.425 16.1167 11.625 15.7C11.825 15.2833 11.95 14.8333 12 14.35C11.5667 14.5 11.1625 14.6917 10.7875 14.925C10.4125 15.1583 10.0667 15.4333 9.75 15.75C9.43333 16.0667 9.15833 16.4125 8.925 16.7875C8.69167 17.1625 8.5 17.5667 8.35 18ZM7 9C8.1 9 9.04167 8.60833 9.825 7.825C10.6083 7.04167 11 6.1 11 5V3.8L9.25 5.275L7 2.55L4.75 5.275L3 3.8V5C3 6.1 3.39167 7.04167 4.175 7.825C4.95833 8.60833 5.9 9 7 9ZM6 20C4.33333 20 2.91667 19.4167 1.75 18.25C0.583333 17.0833 0 15.6667 0 14V12C1.18333 11.9833 2.3 12.225 3.35 12.725C4.4 13.225 5.28333 13.9 6 14.75V10.925C4.56667 10.6917 3.375 10.0208 2.425 8.9125C1.475 7.80417 1 6.5 1 5V1.6C1 1.16667 1.19167 0.8625 1.575 0.6875C1.95833 0.5125 2.31667 0.566667 2.65 0.85L4.5 2.45L6.225 0.35C6.425 0.116667 6.68333 0 7 0C7.31667 0 7.575 0.116667 7.775 0.35L9.5 2.45L11.35 0.85C11.6833 0.566667 12.0417 0.5125 12.425 0.6875C12.8083 0.8625 13 1.16667 13 1.6V5C13 6.5 12.525 7.80417 11.575 8.9125C10.625 10.0208 9.43333 10.6917 8 10.925V14.75C8.71667 13.9 9.6 13.225 10.65 12.725C11.7 12.225 12.8167 11.9833 14 12V14C14 15.6667 13.4167 17.0833 12.25 18.25C11.0833 19.4167 9.66667 20 8 20H6Z" fill="#111111"/>
</svg>
