<svg width="14" height="20" viewBox="0 0 14 20" fill="none" xmlns="http://www.w3.org/2000/svg">
<path d="M7 20C5.05 20 3.39583 19.3208 2.0375 17.9625C0.679167 16.6042 0 14.95 0 13C0 11.4333 0.4625 10.0292 1.3875 8.78751C2.3125 7.54584 3.525 6.70834 5.025 6.27501C4.69167 6.19167 4.36667 6.07084 4.05 5.91251C3.73333 5.75417 3.45 5.55001 3.2 5.30001C2.65 4.75001 2.29583 4.09584 2.1375 3.33751C1.97917 2.57917 1.94167 1.80834 2.025 1.02501C2.80833 0.941673 3.57917 0.979173 4.3375 1.13751C5.09583 1.29584 5.75 1.65001 6.3 2.20001C6.68333 2.58334 6.9625 3.01667 7.1375 3.50001C7.3125 3.98334 7.425 4.49167 7.475 5.02501C7.69167 4.50834 7.95417 4.02084 8.2625 3.56251C8.57083 3.10417 8.91667 2.68334 9.3 2.30001C9.48333 2.11667 9.71667 2.02501 10 2.02501C10.2833 2.02501 10.5167 2.11667 10.7 2.30001C10.8833 2.48334 10.975 2.71667 10.975 3.00001C10.975 3.28334 10.8833 3.51667 10.7 3.70001C10.3333 4.06667 10.0083 4.47084 9.725 4.91251C9.44167 5.35417 9.23333 5.82501 9.1 6.32501C10.5667 6.79167 11.75 7.63751 12.65 8.86251C13.55 10.0875 14 11.4667 14 13C14 14.95 13.3208 16.6042 11.9625 17.9625C10.6042 19.3208 8.95 20 7 20ZM7 18C8.38333 18 9.5625 17.5125 10.5375 16.5375C11.5125 15.5625 12 14.3833 12 13C12 11.6167 11.5125 10.4375 10.5375 9.46251C9.5625 8.48751 8.38333 8.00001 7 8.00001C5.61667 8.00001 4.4375 8.48751 3.4625 9.46251C2.4875 10.4375 2 11.6167 2 13C2 14.3833 2.4875 15.5625 3.4625 16.5375C4.4375 17.5125 5.61667 18 7 18Z" fill="#111111"/>
</svg>
