<svg width="16" height="18" viewBox="0 0 16 18" fill="none" xmlns="http://www.w3.org/2000/svg">
<path d="M8 16C9.1 16 10.0417 15.6083 10.825 14.825C11.6083 14.0417 12 13.1 12 12V8C12 6.9 11.6083 5.95833 10.825 5.175C10.0417 4.39167 9.1 4 8 4C6.9 4 5.95833 4.39167 5.175 5.175C4.39167 5.95833 4 6.9 4 8V12C4 13.1 4.39167 14.0417 5.175 14.825C5.95833 15.6083 6.9 16 8 16ZM6 13H10V11H6V13ZM6 9H10V7H6V9ZM8 18C6.91667 18 5.9125 17.7333 4.9875 17.2C4.0625 16.6667 3.33333 15.9333 2.8 15H0V13H2.1C2.05 12.6667 2.02083 12.3333 2.0125 12C2.00417 11.6667 2 11.3333 2 11H0V9H2C2 8.66667 2.00417 8.33333 2.0125 8C2.02083 7.66667 2.05 7.33333 2.1 7H0V5H2.8C3.03333 4.61667 3.29583 4.25833 3.5875 3.925C3.87917 3.59167 4.21667 3.3 4.6 3.05L3 1.4L4.4 0L6.55 2.15C7.01667 2 7.49167 1.925 7.975 1.925C8.45833 1.925 8.93333 2 9.4 2.15L11.6 0L13 1.4L11.35 3.05C11.7333 3.3 12.0792 3.5875 12.3875 3.9125C12.6958 4.2375 12.9667 4.6 13.2 5H16V7H13.9C13.95 7.33333 13.9792 7.66667 13.9875 8C13.9958 8.33333 14 8.66667 14 9H16V11H14C14 11.3333 13.9958 11.6667 13.9875 12C13.9792 12.3333 13.95 12.6667 13.9 13H16V15H13.2C12.6667 15.9333 11.9375 16.6667 11.0125 17.2C10.0875 17.7333 9.08333 18 8 18Z" fill="#111111"/>
</svg>
