<svg width="20" height="20" viewBox="0 0 20 20" fill="none" xmlns="http://www.w3.org/2000/svg">
<path d="M6 10V12C6 13.1 6.39167 14.0417 7.175 14.825C7.95833 15.6083 8.9 16 10 16C11.1 16 12.0417 15.6083 12.825 14.825C13.6083 14.0417 14 13.1 14 12V10H6ZM10 14.5C9.3 14.5 8.70833 14.2583 8.225 13.775C7.74167 13.2917 7.5 12.7 7.5 12V11.5H12.5V12C12.5 12.7 12.2583 13.2917 11.775 13.775C11.2917 14.2583 10.7 14.5 10 14.5ZM6.5 5C5.86667 5 5.30417 5.22917 4.8125 5.6875C4.32083 6.14583 3.975 6.775 3.775 7.575L5.225 7.925C5.325 7.49167 5.49167 7.14583 5.725 6.8875C5.95833 6.62917 6.21667 6.5 6.5 6.5C6.78333 6.5 7.04167 6.62917 7.275 6.8875C7.50833 7.14583 7.675 7.49167 7.775 7.925L9.225 7.575C9.025 6.775 8.67917 6.14583 8.1875 5.6875C7.69583 5.22917 7.13333 5 6.5 5ZM13.5 5C12.8667 5 12.3042 5.22917 11.8125 5.6875C11.3208 6.14583 10.975 6.775 10.775 7.575L12.225 7.925C12.325 7.49167 12.4917 7.14583 12.725 6.8875C12.9583 6.62917 13.2167 6.5 13.5 6.5C13.7833 6.5 14.0417 6.62917 14.275 6.8875C14.5083 7.14583 14.675 7.49167 14.775 7.925L16.225 7.575C16.025 6.775 15.6792 6.14583 15.1875 5.6875C14.6958 5.22917 14.1333 5 13.5 5ZM10 20C8.61667 20 7.31667 19.7375 6.1 19.2125C4.88333 18.6875 3.825 17.975 2.925 17.075C2.025 16.175 1.3125 15.1167 0.7875 13.9C0.2625 12.6833 0 11.3833 0 10C0 8.61667 0.2625 7.31667 0.7875 6.1C1.3125 4.88333 2.025 3.825 2.925 2.925C3.825 2.025 4.88333 1.3125 6.1 0.7875C7.31667 0.2625 8.61667 0 10 0C11.3833 0 12.6833 0.2625 13.9 0.7875C15.1167 1.3125 16.175 2.025 17.075 2.925C17.975 3.825 18.6875 4.88333 19.2125 6.1C19.7375 7.31667 20 8.61667 20 10C20 11.3833 19.7375 12.6833 19.2125 13.9C18.6875 15.1167 17.975 16.175 17.075 17.075C16.175 17.975 15.1167 18.6875 13.9 19.2125C12.6833 19.7375 11.3833 20 10 20ZM10 18C12.2333 18 14.125 17.225 15.675 15.675C17.225 14.125 18 12.2333 18 10C18 7.76667 17.225 5.875 15.675 4.325C14.125 2.775 12.2333 2 10 2C7.76667 2 5.875 2.775 4.325 4.325C2.775 5.875 2 7.76667 2 10C2 12.2333 2.775 14.125 4.325 15.675C5.875 17.225 7.76667 18 10 18Z" fill="#111111"/>
</svg>
