<svg width="24" height="24" viewBox="0 0 24 24" fill="none" xmlns="http://www.w3.org/2000/svg">
<path d="M12 23C11.6167 23 11.2334 22.975 10.85 22.925C10.4667 22.875 10.0834 22.8083 9.70004 22.725C8.23337 23.8083 6.62087 24.1958 4.86253 23.8875C3.1042 23.5792 1.75837 22.6417 0.825035 21.075C0.0750352 19.8417 -0.166631 18.5167 0.100035 17.1C0.366702 15.6833 1.00837 14.4917 2.02504 13.525V13.45C0.991702 12.5 0.350035 11.3292 0.100035 9.9375C-0.149965 8.54583 0.0833685 7.23333 0.800035 6C1.4167 4.95 2.2667 4.15417 3.35004 3.6125C4.43337 3.07083 5.57504 2.88333 6.77504 3.05C7.30837 2.1 8.03754 1.35417 8.96253 0.8125C9.88754 0.270833 10.9 0 12 0C13.1 0 14.1125 0.270833 15.0375 0.8125C15.9625 1.35417 16.6917 2.1 17.225 3.05C18.425 2.88333 19.5667 3.07083 20.65 3.6125C21.7334 4.15417 22.5834 4.95 23.2 6C23.9167 7.23333 24.15 8.54583 23.9 9.9375C23.65 11.3292 23.0084 12.5 21.975 13.45V13.525C22.9917 14.4917 23.6334 15.6833 23.9 17.1C24.1667 18.5167 23.925 19.8417 23.175 21.075C22.2417 22.6417 20.8959 23.5792 19.1375 23.8875C17.3792 24.1958 15.7667 23.8083 14.3 22.725C13.9167 22.8083 13.5334 22.875 13.15 22.925C12.7667 22.975 12.3834 23 12 23ZM7.20004 21.75C6.6667 21.45 6.15837 21.1042 5.67503 20.7125C5.1917 20.3208 4.75004 19.8917 4.35004 19.425C3.95004 18.9583 3.59587 18.4542 3.28754 17.9125C2.9792 17.3708 2.72504 16.8083 2.52504 16.225C2.1917 16.825 2.02504 17.4625 2.02504 18.1375C2.02504 18.8125 2.20004 19.4417 2.55004 20.025C3.03337 20.825 3.71254 21.3958 4.58754 21.7375C5.46254 22.0792 6.33337 22.0833 7.20004 21.75ZM16.8 21.75C17.6667 22.0833 18.5375 22.0792 19.4125 21.7375C20.2875 21.3958 20.9667 20.825 21.45 20.025C21.8 19.4417 21.975 18.8125 21.975 18.1375C21.975 17.4625 21.8084 16.825 21.475 16.225C21.275 16.8083 21.0209 17.3708 20.7125 17.9125C20.4042 18.4542 20.05 18.9583 19.65 19.425C19.25 19.8917 18.8125 20.3208 18.3375 20.7125C17.8625 21.1042 17.35 21.45 16.8 21.75ZM12 21C14.2334 21 16.125 20.225 17.675 18.675C19.225 17.125 20 15.2333 20 13C20 12.5167 19.9625 12.0542 19.8875 11.6125C19.8125 11.1708 19.7 10.7417 19.55 10.325C19.0667 10.6583 18.5334 10.9167 17.95 11.1C17.3667 11.2833 16.7584 11.375 16.125 11.375C14.425 11.375 12.9792 10.7792 11.7875 9.5875C10.5959 8.39583 10 6.95 10 5.25C8.2667 5.68333 6.83337 6.61667 5.70004 8.05C4.5667 9.48333 4.00004 11.1333 4.00004 13C4.00004 15.2333 4.77504 17.125 6.32504 18.675C7.87504 20.225 9.7667 21 12 21ZM9.00004 15.25C8.65003 15.25 8.3542 15.1292 8.11254 14.8875C7.87087 14.6458 7.75004 14.35 7.75004 14C7.75004 13.65 7.87087 13.3542 8.11254 13.1125C8.3542 12.8708 8.65003 12.75 9.00004 12.75C9.35004 12.75 9.64587 12.8708 9.88754 13.1125C10.1292 13.3542 10.25 13.65 10.25 14C10.25 14.35 10.1292 14.6458 9.88754 14.8875C9.64587 15.1292 9.35004 15.25 9.00004 15.25ZM15 15.25C14.65 15.25 14.3542 15.1292 14.1125 14.8875C13.8709 14.6458 13.75 14.35 13.75 14C13.75 13.65 13.8709 13.3542 14.1125 13.1125C14.3542 12.8708 14.65 12.75 15 12.75C15.35 12.75 15.6459 12.8708 15.8875 13.1125C16.1292 13.3542 16.25 13.65 16.25 14C16.25 14.35 16.1292 14.6458 15.8875 14.8875C15.6459 15.1292 15.35 15.25 15 15.25ZM2.35004 10.4C2.50004 9.85 2.6917 9.32083 2.92504 8.8125C3.15837 8.30417 3.43337 7.825 3.75004 7.375C4.0667 6.925 4.41254 6.5 4.78754 6.1C5.16254 5.7 5.5667 5.33333 6.00004 5C5.28337 5 4.62087 5.175 4.01254 5.525C3.4042 5.875 2.9167 6.35833 2.55004 6.975C2.2167 7.50833 2.03337 8.06667 2.00004 8.65C1.9667 9.23333 2.08337 9.81667 2.35004 10.4ZM21.65 10.4C21.9167 9.81667 22.0334 9.23333 22 8.65C21.9667 8.06667 21.7834 7.50833 21.45 6.975C21.0834 6.35833 20.5959 5.875 19.9875 5.525C19.3792 5.175 18.7167 5 18 5C18.4334 5.33333 18.8375 5.7 19.2125 6.1C19.5875 6.5 19.9334 6.925 20.25 7.375C20.5667 7.825 20.8417 8.30417 21.075 8.8125C21.3084 9.32083 21.5 9.85 21.65 10.4ZM16.125 9.375C16.6084 9.375 17.0584 9.3 17.475 9.15C17.8917 9 18.275 8.79167 18.625 8.525C18.275 7.99167 17.8584 7.5125 17.375 7.0875C16.8917 6.6625 16.3667 6.29167 15.8 5.975C15.2334 5.65833 14.6334 5.41667 14 5.25C13.3667 5.08333 12.7 5 12 5V5.25C12 6.4 12.4 7.375 13.2 8.175C14 8.975 14.975 9.375 16.125 9.375ZM14.775 3.4C14.4417 2.96667 14.0334 2.625 13.55 2.375C13.0667 2.125 12.55 2 12 2C11.45 2 10.9334 2.125 10.45 2.375C9.9667 2.625 9.55837 2.96667 9.22504 3.4C9.65837 3.26667 10.1084 3.16667 10.575 3.1C11.0417 3.03333 11.5167 3 12 3C12.4834 3 12.9584 3.03333 13.425 3.1C13.8917 3.16667 14.3417 3.26667 14.775 3.4Z" fill="#111111"/>
</svg>
