<svg width="10" height="18" viewBox="0 0 10 18" fill="none" xmlns="http://www.w3.org/2000/svg">
<path d="M5 18C3.61667 18 2.4375 17.5125 1.4625 16.5375C0.4875 15.5625 0 14.3833 0 13C0 11.7833 0.379167 10.7208 1.1375 9.8125C1.89583 8.90417 2.85 8.33333 4 8.1V3.825L2.4 5.4L1 4L5 0L9 4L7.6 5.425L6 3.825V8.1C7.15 8.33333 8.10417 8.90417 8.8625 9.8125C9.62083 10.7208 10 11.7833 10 13C10 14.3833 9.5125 15.5625 8.5375 16.5375C7.5625 17.5125 6.38333 18 5 18ZM5 16C5.83333 16 6.54167 15.7083 7.125 15.125C7.70833 14.5417 8 13.8333 8 13C8 12.1667 7.70833 11.4583 7.125 10.875C6.54167 10.2917 5.83333 10 5 10C4.16667 10 3.45833 10.2917 2.875 10.875C2.29167 11.4583 2 12.1667 2 13C2 13.8333 2.29167 14.5417 2.875 15.125C3.45833 15.7083 4.16667 16 5 16Z" fill="#111111"/>
</svg>
