<svg width="20" height="21" viewBox="0 0 20 21" fill="none" xmlns="http://www.w3.org/2000/svg">
<path d="M11.95 19.9C11.7 20.0333 11.4458 20.0542 11.1875 19.9625C10.9292 19.8708 10.7333 19.7 10.6 19.45L9.1 16.45C8.96667 16.2 8.94583 15.9458 9.0375 15.6875C9.12917 15.4292 9.3 15.2333 9.55 15.1C9.8 14.9667 10.0542 14.9458 10.3125 15.0375C10.5708 15.1292 10.7667 15.3 10.9 15.55L12.4 18.55C12.5333 18.8 12.5542 19.0542 12.4625 19.3125C12.3708 19.5708 12.2 19.7667 11.95 19.9ZM17.95 19.9C17.7 20.0333 17.4458 20.0542 17.1875 19.9625C16.9292 19.8708 16.7333 19.7 16.6 19.45L15.1 16.45C14.9667 16.2 14.9458 15.9458 15.0375 15.6875C15.1292 15.4292 15.3 15.2333 15.55 15.1C15.8 14.9667 16.0542 14.9458 16.3125 15.0375C16.5708 15.1292 16.7667 15.3 16.9 15.55L18.4 18.55C18.5333 18.8 18.5542 19.0542 18.4625 19.3125C18.3708 19.5708 18.2 19.7667 17.95 19.9ZM5.95 19.9C5.7 20.0333 5.44583 20.0542 5.1875 19.9625C4.92917 19.8708 4.73333 19.7 4.6 19.45L3.1 16.45C2.96667 16.2 2.94583 15.9458 3.0375 15.6875C3.12917 15.4292 3.3 15.2333 3.55 15.1C3.8 14.9667 4.05417 14.9458 4.3125 15.0375C4.57083 15.1292 4.76667 15.3 4.9 15.55L6.4 18.55C6.53333 18.8 6.55417 19.0542 6.4625 19.3125C6.37083 19.5708 6.2 19.7667 5.95 19.9ZM5.5 14C3.98333 14 2.6875 13.4625 1.6125 12.3875C0.5375 11.3125 0 10.0167 0 8.5C0 7.11667 0.458333 5.90833 1.375 4.875C2.29167 3.84167 3.425 3.23333 4.775 3.05C5.30833 2.1 6.0375 1.35417 6.9625 0.8125C7.8875 0.270833 8.9 0 10 0C11.5 0 12.8042 0.479167 13.9125 1.4375C15.0208 2.39583 15.6917 3.59167 15.925 5.025C17.075 5.125 18.0417 5.6 18.825 6.45C19.6083 7.3 20 8.31667 20 9.5C20 10.75 19.5625 11.8125 18.6875 12.6875C17.8125 13.5625 16.75 14 15.5 14H5.5ZM5.5 12H15.5C16.2 12 16.7917 11.7583 17.275 11.275C17.7583 10.7917 18 10.2 18 9.5C18 8.8 17.7583 8.20833 17.275 7.725C16.7917 7.24167 16.2 7 15.5 7H14V6C14 4.9 13.6083 3.95833 12.825 3.175C12.0417 2.39167 11.1 2 10 2C9.2 2 8.47083 2.21667 7.8125 2.65C7.15417 3.08333 6.65833 3.66667 6.325 4.4L6.075 5H5.45C4.5 5.03333 3.6875 5.3875 3.0125 6.0625C2.3375 6.7375 2 7.55 2 8.5C2 9.46667 2.34167 10.2917 3.025 10.975C3.70833 11.6583 4.53333 12 5.5 12Z" fill="#111111"/>
</svg>
