<svg width="22" height="12" viewBox="0 0 22 12" fill="none" xmlns="http://www.w3.org/2000/svg">
<path d="M6.8 12C5.95 12 5.1375 11.85 4.3625 11.55C3.5875 11.25 2.89167 10.8083 2.275 10.225C1.475 9.475 0.895833 8.5875 0.5375 7.5625C0.179167 6.5375 0 5.475 0 4.375C0 3.075 0.316667 2.02083 0.95 1.2125C1.58333 0.404167 2.50833 0 3.725 0C3.95833 0 4.17917 0.0208333 4.3875 0.0625C4.59583 0.104167 4.80833 0.166667 5.025 0.25L11 2.475L16.975 0.25C17.1917 0.166667 17.4042 0.104167 17.6125 0.0625C17.8208 0.0208333 18.0417 0 18.275 0C19.4917 0 20.4167 0.404167 21.05 1.2125C21.6833 2.02083 22 3.075 22 4.375C22 5.475 21.8208 6.5375 21.4625 7.5625C21.1042 8.5875 20.525 9.475 19.725 10.225C19.1083 10.8083 18.4125 11.25 17.6375 11.55C16.8625 11.85 16.05 12 15.2 12C14.1 12 13.1667 11.75 12.4 11.25L11.25 10.5H10.75L9.6 11.25C8.83333 11.75 7.9 12 6.8 12ZM6.8 10C7.41667 10 7.99167 9.85417 8.525 9.5625C9.05833 9.27083 9.55 8.91667 10 8.5H12C12.45 8.91667 12.9417 9.27083 13.475 9.5625C14.0083 9.85417 14.5833 10 15.2 10C15.8 10 16.3792 9.89583 16.9375 9.6875C17.4958 9.47917 17.9917 9.15833 18.425 8.725C18.9917 8.15833 19.3958 7.49167 19.6375 6.725C19.8792 5.95833 20 5.175 20 4.375C20 3.69167 19.8583 3.12083 19.575 2.6625C19.2917 2.20417 18.8417 1.98333 18.225 2C18.175 2 17.9917 2.03333 17.675 2.1L11 4.6L4.325 2.1C4.24167 2.06667 4.15417 2.04167 4.0625 2.025C3.97083 2.00833 3.875 2 3.775 2C3.15833 2 2.70833 2.225 2.425 2.675C2.14167 3.125 2 3.69167 2 4.375C2 5.19167 2.12083 5.98333 2.3625 6.75C2.60417 7.51667 3.01667 8.18333 3.6 8.75C4.03333 9.16667 4.525 9.47917 5.075 9.6875C5.625 9.89583 6.2 10 6.8 10ZM8.025 8.5C8.64167 8.5 9.125 8.3625 9.475 8.0875C9.825 7.8125 10 7.43333 10 6.95C10 6.13333 9.4625 5.35417 8.3875 4.6125C7.3125 3.87083 6.175 3.5 4.975 3.5C4.35833 3.5 3.875 3.6375 3.525 3.9125C3.175 4.1875 3 4.56667 3 5.05C3 5.86667 3.5375 6.64583 4.6125 7.3875C5.6875 8.12917 6.825 8.5 8.025 8.5ZM7.875 7C7.24167 7 6.55417 6.79167 5.8125 6.375C5.07083 5.95833 4.63333 5.53333 4.5 5.1C4.58333 5.06667 4.67917 5.0375 4.7875 5.0125C4.89583 4.9875 5.00833 4.975 5.125 4.975C5.75833 4.975 6.44583 5.1875 7.1875 5.6125C7.92917 6.0375 8.36667 6.46667 8.5 6.9C8.41667 6.93333 8.32083 6.95833 8.2125 6.975C8.10417 6.99167 7.99167 7 7.875 7ZM13.975 8.525C15.175 8.525 16.3125 8.15 17.3875 7.4C18.4625 6.65 19 5.86667 19 5.05C19 4.56667 18.8292 4.18333 18.4875 3.9C18.1458 3.61667 17.6583 3.475 17.025 3.475C15.825 3.475 14.6875 3.85 13.6125 4.6C12.5375 5.35 12 6.13333 12 6.95C12 7.43333 12.175 7.81667 12.525 8.1C12.875 8.38333 13.3583 8.525 13.975 8.525ZM14.125 7C14.0083 7 13.9 6.99167 13.8 6.975C13.7 6.95833 13.6083 6.93333 13.525 6.9C13.6583 6.46667 14.0958 6.04167 14.8375 5.625C15.5792 5.20833 16.2667 5 16.9 5C17.0167 5 17.125 5.00833 17.225 5.025C17.325 5.04167 17.4167 5.06667 17.5 5.1C17.3667 5.53333 16.9292 5.95833 16.1875 6.375C15.4458 6.79167 14.7583 7 14.125 7Z" fill="#111111"/>
</svg>
