<svg width="20" height="19" viewBox="0 0 20 19" fill="none" xmlns="http://www.w3.org/2000/svg">
<path d="M13.2 12.8L14.35 8.65L10.8 6.2L9.65003 10.35L13.2 12.8ZM2.00003 16.825L1.17503 16.425C0.658362 16.2083 0.308362 15.8375 0.125028 15.3125C-0.058305 14.7875 -0.033305 14.2667 0.200028 13.75L2.00003 9.85V16.825ZM6.00003 19C5.45003 19 4.9792 18.8 4.58753 18.4C4.19586 18 4.00003 17.525 4.00003 16.975V11L6.67503 18.35C6.72503 18.4667 6.7667 18.5792 6.80003 18.6875C6.83336 18.7958 6.8917 18.9 6.97503 19H6.00003ZM11.15 18.875C10.6334 19.0583 10.1167 19.0333 9.60003 18.8C9.08336 18.5667 8.73336 18.1917 8.55003 17.675L4.12503 5.45C3.94169 4.93333 3.9667 4.42083 4.20003 3.9125C4.43336 3.40416 4.80836 3.05833 5.32503 2.875L12.85 0.124998C13.3667 -0.0583355 13.8792 -0.0333355 14.3875 0.199998C14.8959 0.433331 15.2417 0.808331 15.425 1.325L19.875 13.55C20.0584 14.0667 20.0334 14.5792 19.8 15.0875C19.5667 15.5958 19.1917 15.9417 18.675 16.125L11.15 18.875ZM10.45 17L18 14.25L13.525 2L6.00003 4.75L10.45 17Z" fill="#111111"/>
</svg>
