<svg width="20" height="20" viewBox="0 0 20 20" fill="none" xmlns="http://www.w3.org/2000/svg">
<path d="M6.5 10C7.2 10 7.78333 9.74583 8.25 9.2375C8.71667 8.72917 9.04167 8.125 9.225 7.425L7.775 7.075C7.69167 7.44167 7.54583 7.77083 7.3375 8.0625C7.12917 8.35417 6.85 8.5 6.5 8.5C6.15 8.5 5.87083 8.35417 5.6625 8.0625C5.45417 7.77083 5.30833 7.44167 5.225 7.075L3.775 7.425C3.95833 8.125 4.28333 8.72917 4.75 9.2375C5.21667 9.74583 5.8 10 6.5 10ZM10 15.5C10.65 15.5 11.275 15.3542 11.875 15.0625C12.475 14.7708 13.0333 14.3333 13.55 13.75L12.45 12.75C12.0833 13.15 11.6917 13.4542 11.275 13.6625C10.8583 13.8708 10.4333 13.975 10 13.975C9.56667 13.975 9.14167 13.8708 8.725 13.6625C8.30833 13.4542 7.91667 13.15 7.55 12.75L6.45 13.75C6.98333 14.3333 7.54583 14.7708 8.1375 15.0625C8.72917 15.3542 9.35 15.5 10 15.5ZM13.5 10C14.2 10 14.7833 9.74583 15.25 9.2375C15.7167 8.72917 16.0417 8.125 16.225 7.425L14.775 7.075C14.6917 7.44167 14.5458 7.77083 14.3375 8.0625C14.1292 8.35417 13.85 8.5 13.5 8.5C13.15 8.5 12.8708 8.35417 12.6625 8.0625C12.4542 7.77083 12.3083 7.44167 12.225 7.075L10.775 7.425C10.9583 8.125 11.2833 8.72917 11.75 9.2375C12.2167 9.74583 12.8 10 13.5 10ZM10 20C8.61667 20 7.31667 19.7375 6.1 19.2125C4.88333 18.6875 3.825 17.975 2.925 17.075C2.025 16.175 1.3125 15.1167 0.7875 13.9C0.2625 12.6833 0 11.3833 0 10C0 8.61667 0.2625 7.31667 0.7875 6.1C1.3125 4.88333 2.025 3.825 2.925 2.925C3.825 2.025 4.88333 1.3125 6.1 0.7875C7.31667 0.2625 8.61667 0 10 0C11.3833 0 12.6833 0.2625 13.9 0.7875C15.1167 1.3125 16.175 2.025 17.075 2.925C17.975 3.825 18.6875 4.88333 19.2125 6.1C19.7375 7.31667 20 8.61667 20 10C20 11.3833 19.7375 12.6833 19.2125 13.9C18.6875 15.1167 17.975 16.175 17.075 17.075C16.175 17.975 15.1167 18.6875 13.9 19.2125C12.6833 19.7375 11.3833 20 10 20ZM10 18C12.2333 18 14.125 17.225 15.675 15.675C17.225 14.125 18 12.2333 18 10C18 7.76667 17.225 5.875 15.675 4.325C14.125 2.775 12.2333 2 10 2C7.76667 2 5.875 2.775 4.325 4.325C2.775 5.875 2 7.76667 2 10C2 12.2333 2.775 14.125 4.325 15.675C5.875 17.225 7.76667 18 10 18Z" fill="#111111"/>
</svg>
