<svg xmlns="http://www.w3.org/2000/svg" width="20" height="20" viewBox="0 0 20 20" fill="none">
<path d="M16.6667 2.5H3.33335C2.41419 2.5 1.66669 3.2475 1.66669 4.16667V15.8333C1.66669 16.7525 2.41419 17.5 3.33335 17.5H16.6667C17.5859 17.5 18.3334 16.7525 18.3334 15.8333V4.16667C18.3334 3.2475 17.5859 2.5 16.6667 2.5ZM3.33335 15.8333V5.83333H16.6667L16.6684 15.8333H3.33335Z" fill="#111111"/>
<path d="M3.33335 15.8333V5.83333H16.6667L16.6684 15.8333H3.33335Z" fill="#111111"/>
<path d="M16.6667 2.5H3.33335C2.41419 2.5 1.66669 3.2475 1.66669 4.16667V15.8333C1.66669 16.7525 2.41419 17.5 3.33335 17.5H16.6667C17.5859 17.5 18.3334 16.7525 18.3334 15.8333V4.16667C18.3334 3.2475 17.5859 2.5 16.6667 2.5ZM3.33335 15.8333V5.83333H16.6667L16.6684 15.8333H3.33335Z" stroke="#111111"/>
<path d="M3.33335 15.8333V5.83333H16.6667L16.6684 15.8333H3.33335Z" stroke="#111111"/>
<path d="M7.7442 7.74414L4.65503 10.8333L7.7442 13.9225L8.92253 12.7441L7.0117 10.8333L8.92253 8.92247L7.7442 7.74414ZM12.2559 7.74414L11.0775 8.92247L12.9884 10.8333L11.0775 12.7441L12.2559 13.9225L15.345 10.8333L12.2559 7.74414Z" fill="white"/>
</svg>