<svg width="110" height="24" viewBox="0 0 110 24" fill="none" xmlns="http://www.w3.org/2000/svg">
<path d="M11.3746 0H0L17.4252 24H28.7998L11.3746 0ZM18.8903 21.1252L5.63974 2.87527H9.91005L23.16 21.1252H18.8903Z" fill="#111111"/>
<path d="M13.1554 24H0L6.57743 14.9403L8.35403 17.387L5.63974 21.1252H11.0678L13.1554 24Z" fill="#111111"/>
<path d="M28.7998 0L22.2224 9.05965L20.4463 6.61298L23.16 2.87527H17.7325L15.6449 0H28.7998Z" fill="#111111"/>
<path d="M28.8 14.2H31.4173C31.4173 14.6791 31.6027 15.0711 31.9735 15.376C32.3443 15.6809 32.8678 15.8333 33.544 15.8333C34.1983 15.8333 34.689 15.719 35.0162 15.4903C35.3434 15.2617 35.507 14.9677 35.507 14.6083C35.507 14.3034 35.3816 14.053 35.1307 13.857C34.8908 13.661 34.4709 13.5031 33.8711 13.3833L32.0717 13.0567C31.0466 12.8715 30.2832 12.5231 29.7815 12.0113C29.2907 11.4887 29.0454 10.7754 29.0454 9.87165C29.0454 8.85899 29.4271 8.02054 30.1905 7.35632C30.9648 6.6921 32.0281 6.35999 33.3804 6.35999C34.8526 6.35999 35.9977 6.71932 36.8156 7.43799C37.6336 8.15665 38.0425 9.10399 38.0425 10.28H35.4252C35.4252 9.81176 35.2398 9.42521 34.869 9.12032C34.4982 8.80454 34.002 8.64665 33.3804 8.64665C32.8242 8.64665 32.3989 8.76643 32.1044 9.00599C31.81 9.23465 31.6627 9.52321 31.6627 9.87165C31.6627 10.1657 31.7609 10.3943 31.9572 10.5577C32.1644 10.7101 32.5297 10.8353 33.0532 10.9333L34.8526 11.26C35.9977 11.4669 36.8266 11.8317 37.3391 12.3543C37.8626 12.877 38.1243 13.6283 38.1243 14.6083C38.1243 15.6319 37.7263 16.4758 36.9302 17.14C36.134 17.7933 35.0053 18.12 33.544 18.12C32.0826 18.12 30.9266 17.7498 30.076 17.0093C29.2253 16.2689 28.8 15.3324 28.8 14.2Z" fill="#111111"/>
<path d="M49.2751 16.454C48.2063 17.5647 46.8867 18.12 45.3163 18.12C43.7459 18.12 42.4263 17.5647 41.3576 16.454C40.2888 15.3433 39.7544 13.9387 39.7544 12.24C39.7544 10.5413 40.2888 9.13665 41.3576 8.02599C42.4263 6.91532 43.7459 6.35999 45.3163 6.35999C46.8867 6.35999 48.2063 6.91532 49.2751 8.02599C50.3438 9.13665 50.8782 10.5413 50.8782 12.24C50.8782 13.9387 50.3438 15.3433 49.2751 16.454ZM43.2061 14.6737C43.7732 15.2834 44.4766 15.5883 45.3163 15.5883C46.156 15.5883 46.854 15.2834 47.4102 14.6737C47.9773 14.053 48.2608 13.2418 48.2608 12.24C48.2608 11.2382 47.9773 10.4324 47.4102 9.82265C46.854 9.20199 46.156 8.89165 45.3163 8.89165C44.4766 8.89165 43.7732 9.20199 43.2061 9.82265C42.6499 10.4324 42.3718 11.2382 42.3718 12.24C42.3718 13.2418 42.6499 14.053 43.2061 14.6737Z" fill="#111111"/>
<path d="M53.001 17.9567V6.52332H60.7713V8.89165H55.6183V11.1783H60.3623V13.465H55.6183V17.9567H53.001Z" fill="#111111"/>
<path d="M65.2692 17.9567V9.05499H62.0793V6.52332H71.0765V9.05499H67.8866V17.9567H65.2692Z" fill="#111111"/>
<path d="M80.8029 13.6283H83.4203C83.2458 14.4668 82.935 15.2181 82.4878 15.8823C81.5172 17.3741 80.0831 18.12 78.1855 18.12C76.6151 18.12 75.2955 17.5647 74.2268 16.454C73.158 15.3433 72.6237 13.9387 72.6237 12.24C72.6237 10.5413 73.158 9.13665 74.2268 8.02599C75.2955 6.91532 76.6151 6.35999 78.1855 6.35999C80.0395 6.35999 81.4627 7.09499 82.4551 8.56499C82.8804 9.19654 83.2022 9.93154 83.4203 10.77H80.8029C80.6829 10.4107 80.5139 10.1003 80.2958 9.83899C79.7723 9.20743 79.0689 8.89165 78.1855 8.89165C77.3458 8.89165 76.6424 9.20199 76.0753 9.82265C75.5191 10.4324 75.241 11.2382 75.241 12.24C75.241 13.2418 75.5191 14.053 76.0753 14.6737C76.6424 15.2834 77.3458 15.5883 78.1855 15.5883C79.1234 15.5883 79.8378 15.2617 80.3285 14.6083C80.5466 14.3252 80.7048 13.9985 80.8029 13.6283Z" fill="#111111"/>
<path d="M85.3909 17.9567V6.52332H90.7892C91.9016 6.52332 92.8068 6.88265 93.5048 7.60132C94.2027 8.31999 94.5517 9.26732 94.5517 10.4433C94.5517 11.8915 94.0173 12.9423 92.9486 13.5957C92.4578 13.8788 91.9289 14.053 91.3618 14.1183L94.8789 17.9567H91.6072L88.3355 14.2817H88.0083V17.9567H85.3909ZM88.0083 11.9133H90.6257C91.0074 11.9133 91.3182 11.7827 91.5581 11.5213C91.8089 11.2491 91.9343 10.8898 91.9343 10.4433C91.9343 9.99687 91.8089 9.64299 91.5581 9.38165C91.3182 9.10943 91.0074 8.97332 90.6257 8.97332H88.0083V11.9133Z" fill="#111111"/>
<path d="M96.8368 17.9567V6.52332H100.845L103.135 13.6283H103.462L105.752 6.52332H109.76V17.9567H107.143V10.9333H106.815L104.525 17.9567H102.072L99.7813 10.9333H99.4541V17.9567H96.8368Z" fill="#111111"/>
</svg>
