<svg width="20" height="16" viewBox="0 0 20 16" fill="none" xmlns="http://www.w3.org/2000/svg">
<path d="M0.843732 7.2935C0.888118 7.2713 0.932526 7.25022 0.975803 7.23024C1.72816 6.8817 2.4905 6.55536 3.25174 6.22902C3.29279 6.22902 3.36158 6.18128 3.40041 6.16574C3.45923 6.14021 3.51805 6.1158 3.57686 6.09027C3.69005 6.04143 3.80324 5.99369 3.91532 5.94485C4.14169 5.84828 4.36694 5.75171 4.59331 5.65515C5.04494 5.46201 5.49658 5.26887 5.94821 5.07462C6.85148 4.68834 7.75588 4.30096 8.65915 3.91468C9.56242 3.5284 10.4668 3.141 11.3701 2.75472C12.2733 2.36845 13.1777 1.98106 14.081 1.59478C14.9843 1.20851 15.8887 0.821109 16.7919 0.43483C16.9928 0.348251 17.2103 0.219501 17.4255 0.181761C17.6064 0.149572 17.7828 0.0874079 17.9648 0.0529981C18.3099 -0.0124917 18.6906 -0.0391359 19.0212 0.104054C19.1355 0.154003 19.2409 0.223933 19.3286 0.311622C19.7481 0.726761 19.6893 1.4083 19.6005 1.99216C18.9824 6.0614 18.3643 10.1318 17.7451 14.201C17.6608 14.7593 17.5454 15.372 17.1048 15.725C16.732 16.0236 16.2016 16.0569 15.741 15.9304C15.2805 15.8027 14.8744 15.5352 14.476 15.2722C12.8237 14.1777 11.1703 13.0832 9.51804 11.9888C9.12521 11.729 8.68801 11.3894 8.69245 10.9176C8.69467 10.6335 8.86443 10.3804 9.03754 10.1551C10.4735 8.2814 12.5452 6.9938 14.0865 5.2067C14.304 4.95473 14.4749 4.49964 14.1764 4.35423C13.9989 4.26765 13.7947 4.38532 13.6327 4.49743C11.5953 5.91267 9.5591 7.32901 7.52174 8.74426C6.85705 9.20602 6.16018 9.6811 5.359 9.79432C4.64215 9.89644 3.92087 9.69665 3.22733 9.49241C2.64586 9.32147 2.06548 9.14609 1.48735 8.96516C1.17997 8.8697 0.862599 8.76646 0.62513 8.55001C0.387661 8.33356 0.25119 7.96949 0.394337 7.68089C0.48422 7.49996 0.658442 7.38563 0.841537 7.29239L0.843732 7.2935Z" fill="#00B0F2"/>
</svg>
