<svg width="18" height="16" viewBox="0 0 18 16" fill="none" xmlns="http://www.w3.org/2000/svg">
<path d="M11.4757 11.7135C8.22664 11.7135 5.58329 9.0685 5.5824 5.8185C5.58329 4.99466 6.25391 4.32474 7.07573 4.32474C7.16023 4.32474 7.24383 4.33185 7.32387 4.34609C7.49998 4.37545 7.6672 4.43506 7.82106 4.52492C7.8433 4.53826 7.85842 4.55961 7.86197 4.58452L8.20529 6.74911C8.20974 6.77402 8.20173 6.79982 8.18483 6.8185C7.99539 7.02846 7.75347 7.17971 7.48397 7.25534L7.35412 7.29182L7.40303 7.41725C7.84596 8.54537 8.74784 9.44662 9.87651 9.89146L10.0019 9.94127L10.0384 9.81138C10.114 9.54181 10.2652 9.29982 10.4751 9.11032C10.4902 9.09608 10.5107 9.08896 10.5311 9.08896C10.5356 9.08896 10.54 9.08896 10.5454 9.08985L12.7093 9.43327C12.7351 9.43772 12.7564 9.45195 12.7698 9.47419C12.8587 9.62811 12.9183 9.79626 12.9486 9.97242C12.9628 10.0507 12.969 10.1334 12.969 10.2197C12.969 11.0427 12.2993 11.7126 11.4757 11.7135Z" fill="#00E510"/>
<path d="M17.2373 7.28648C17.0621 5.30605 16.1549 3.46886 14.6829 2.11388C13.202 0.75089 11.2809 0 9.27169 0C4.86196 0 1.27406 3.58897 1.27406 8C1.27406 9.48043 1.68229 10.9226 2.4552 12.1788L0.731506 15.9955L6.25035 15.4075C7.21003 15.8007 8.22574 16 9.2708 16C9.54563 16 9.82758 15.9858 10.1104 15.9564C10.3595 15.9297 10.6112 15.8906 10.8584 15.8407C14.5513 15.0943 17.2471 11.8158 17.2684 8.0427V8C17.2684 7.75979 17.2578 7.51957 17.2364 7.28737L17.2373 7.28648ZM6.46292 13.7322L3.40955 14.0578L4.3212 12.0374L4.13887 11.7927C4.12553 11.7749 4.11219 11.7571 4.09707 11.7367C3.30549 10.6432 2.88745 9.35142 2.88745 8.00089C2.88745 4.47954 5.75138 1.61477 9.27169 1.61477C12.5697 1.61477 15.3651 4.18861 15.6346 7.4742C15.6488 7.65035 15.6568 7.8274 15.6568 8.00178C15.6568 8.0516 15.6559 8.10053 15.655 8.15302C15.5874 11.0988 13.5302 13.6005 10.6521 14.2375C10.4324 14.2865 10.2074 14.3238 9.98323 14.3479C9.7502 14.3745 9.51095 14.3879 9.27347 14.3879C8.42764 14.3879 7.60582 14.2242 6.82936 13.9003C6.74308 13.8657 6.65858 13.8283 6.57943 13.79L6.46381 13.734L6.46292 13.7322Z" fill="#00E510"/>
</svg>
