<svg xmlns="http://www.w3.org/2000/svg" width="14" height="14" viewBox="0 0 16 16" fill="none">
<path d="M6.33333 0.5H1.33333C1.11232 0.5 0.900358 0.587797 0.744078 0.744078C0.587797 0.900358 0.5 1.11232 0.5 1.33333V6.33333C0.5 6.55435 0.587797 6.76631 0.744078 6.92259C0.900358 7.07887 1.11232 7.16667 1.33333 7.16667H6.33333C6.55435 7.16667 6.76631 7.07887 6.92259 6.92259C7.07887 6.76631 7.16667 6.55435 7.16667 6.33333V1.33333C7.16667 1.11232 7.07887 0.900358 6.92259 0.744078C6.76631 0.587797 6.55435 0.5 6.33333 0.5ZM5.5 5.5H2.16667V2.16667H5.5V5.5ZM14.6667 8.83333H9.66667C9.44565 8.83333 9.23369 8.92113 9.07741 9.07741C8.92113 9.23369 8.83333 9.44565 8.83333 9.66667V14.6667C8.83333 14.8877 8.92113 15.0996 9.07741 15.2559C9.23369 15.4122 9.44565 15.5 9.66667 15.5H14.6667C14.8877 15.5 15.0996 15.4122 15.2559 15.2559C15.4122 15.0996 15.5 14.8877 15.5 14.6667V9.66667C15.5 9.44565 15.4122 9.23369 15.2559 9.07741C15.0996 8.92113 14.8877 8.83333 14.6667 8.83333ZM13.8333 13.8333H10.5V10.5H13.8333V13.8333ZM12.1667 0.5C10.3283 0.5 8.83333 1.995 8.83333 3.83333C8.83333 5.67167 10.3283 7.16667 12.1667 7.16667C14.005 7.16667 15.5 5.67167 15.5 3.83333C15.5 1.995 14.005 0.5 12.1667 0.5ZM12.1667 5.5C11.2475 5.5 10.5 4.7525 10.5 3.83333C10.5 2.91417 11.2475 2.16667 12.1667 2.16667C13.0858 2.16667 13.8333 2.91417 13.8333 3.83333C13.8333 4.7525 13.0858 5.5 12.1667 5.5ZM3.83333 8.83333C1.995 8.83333 0.5 10.3283 0.5 12.1667C0.5 14.005 1.995 15.5 3.83333 15.5C5.67167 15.5 7.16667 14.005 7.16667 12.1667C7.16667 10.3283 5.67167 8.83333 3.83333 8.83333ZM3.83333 13.8333C2.91417 13.8333 2.16667 13.0858 2.16667 12.1667C2.16667 11.2475 2.91417 10.5 3.83333 10.5C4.7525 10.5 5.5 11.2475 5.5 12.1667C5.5 13.0858 4.7525 13.8333 3.83333 13.8333Z" fill="#111111"/>
<path d="M13.8333 13.8333H10.5V10.5H13.8333V13.8333Z" fill="#111111"/>
<path d="M5.5 5.5H2.16667V2.16667H5.5V5.5Z" fill="#111111"/>
<path d="M6.33333 0.5H1.33333C1.11232 0.5 0.900358 0.587797 0.744078 0.744078C0.587797 0.900358 0.5 1.11232 0.5 1.33333V6.33333C0.5 6.55435 0.587797 6.76631 0.744078 6.92259C0.900358 7.07887 1.11232 7.16667 1.33333 7.16667H6.33333C6.55435 7.16667 6.76631 7.07887 6.92259 6.92259C7.07887 6.76631 7.16667 6.55435 7.16667 6.33333V1.33333C7.16667 1.11232 7.07887 0.900358 6.92259 0.744078C6.76631 0.587797 6.55435 0.5 6.33333 0.5ZM5.5 5.5H2.16667V2.16667H5.5V5.5ZM14.6667 8.83333H9.66667C9.44565 8.83333 9.23369 8.92113 9.07741 9.07741C8.92113 9.23369 8.83333 9.44565 8.83333 9.66667V14.6667C8.83333 14.8877 8.92113 15.0996 9.07741 15.2559C9.23369 15.4122 9.44565 15.5 9.66667 15.5H14.6667C14.8877 15.5 15.0996 15.4122 15.2559 15.2559C15.4122 15.0996 15.5 14.8877 15.5 14.6667V9.66667C15.5 9.44565 15.4122 9.23369 15.2559 9.07741C15.0996 8.92113 14.8877 8.83333 14.6667 8.83333ZM13.8333 13.8333H10.5V10.5H13.8333V13.8333ZM12.1667 0.5C10.3283 0.5 8.83333 1.995 8.83333 3.83333C8.83333 5.67167 10.3283 7.16667 12.1667 7.16667C14.005 7.16667 15.5 5.67167 15.5 3.83333C15.5 1.995 14.005 0.5 12.1667 0.5ZM12.1667 5.5C11.2475 5.5 10.5 4.7525 10.5 3.83333C10.5 2.91417 11.2475 2.16667 12.1667 2.16667C13.0858 2.16667 13.8333 2.91417 13.8333 3.83333C13.8333 4.7525 13.0858 5.5 12.1667 5.5ZM3.83333 8.83333C1.995 8.83333 0.5 10.3283 0.5 12.1667C0.5 14.005 1.995 15.5 3.83333 15.5C5.67167 15.5 7.16667 14.005 7.16667 12.1667C7.16667 10.3283 5.67167 8.83333 3.83333 8.83333ZM3.83333 13.8333C2.91417 13.8333 2.16667 13.0858 2.16667 12.1667C2.16667 11.2475 2.91417 10.5 3.83333 10.5C4.7525 10.5 5.5 11.2475 5.5 12.1667C5.5 13.0858 4.7525 13.8333 3.83333 13.8333Z" stroke="#111111"/>
<path d="M13.8333 13.8333H10.5V10.5H13.8333V13.8333Z" stroke="#111111"/>
<path d="M5.5 5.5H2.16667V2.16667H5.5V5.5Z" stroke="#111111"/>
</svg>